<svg width="64" height="64" viewBox="0 0 64 64" fill="none" xmlns="http://www.w3.org/2000/svg" role="img" aria-labelledby="title desc">
  <title id="title">LiveLayer mark</title>
  <desc id="desc">A layered transparent broadcast frame forming an L with a live signal dot.</desc>
  <rect x="2" y="2" width="60" height="60" rx="15" fill="#07111D"/>
  <rect x="2" y="2" width="60" height="60" rx="15" stroke="#1D3346" stroke-width="2"/>
  <path d="M16 19C16 17.3431 17.3431 16 19 16H45C46.6569 16 48 17.3431 48 19V28H43.5V21.5C43.5 20.9477 43.0523 20.5 42.5 20.5H21.5C20.9477 20.5 20.5 20.9477 20.5 21.5V42.5C20.5 43.0523 20.9477 43.5 21.5 43.5H28V48H19C17.3431 48 16 46.6569 16 45V19Z" fill="#22D3EE"/>
  <path d="M27 28.5C27 27.6716 27.6716 27 28.5 27H45C46.1046 27 47 27.8954 47 29V35.5H42.5V32.5C42.5 31.9477 42.0523 31.5 41.5 31.5H31.5V41.5C31.5 42.0523 31.9477 42.5 32.5 42.5H35.5V47H29C27.8954 47 27 46.1046 27 45V28.5Z" fill="#8BE9FF" fill-opacity="0.64"/>
  <path d="M36 37.5C36 36.6716 36.6716 36 37.5 36H47.5C48.3284 36 49 36.6716 49 37.5V47.5C49 48.3284 48.3284 49 47.5 49H37.5C36.6716 49 36 48.3284 36 47.5V37.5Z" fill="#F5C542"/>
  <path d="M16 19C16 17.3431 17.3431 16 19 16H45C46.6569 16 48 17.3431 48 19V28" stroke="#BDF4FF" stroke-width="1.25" stroke-linecap="round"/>
  <path d="M27 28.5C27 27.6716 27.6716 27 28.5 27H45C46.1046 27 47 27.8954 47 29V35.5" stroke="#D8FBFF" stroke-width="1.25" stroke-linecap="round" stroke-opacity="0.62"/>
  <circle cx="48" cy="16" r="4" fill="#F43F5E"/>
  <circle cx="48" cy="16" r="7.5" stroke="#F43F5E" stroke-opacity="0.28" stroke-width="2"/>
</svg>
